<mxfile host="app.diagrams.net" modified="2020-10-20T18:19:25.966Z" agent="5.0 (Windows NT 10.0; Win64; x64) AppleWebKit/537.36 (KHTML, like Gecko) Chrome/86.0.4240.75 Safari/537.36" etag="twoj7oQPAyQRJlOTsMuh" version="13.8.1" type="github">
  <diagram id="C5RBs43oDa-KdzZeNtuy" name="Page-1">
    <mxGraphModel dx="782" dy="478" grid="1" gridSize="10" guides="1" tooltips="1" connect="1" arrows="1" fold="1" page="1" pageScale="1" pageWidth="827" pageHeight="1169" math="0" shadow="0">
      <root>
        <mxCell id="WIyWlLk6GJQsqaUBKTNV-0" />
        <mxCell id="WIyWlLk6GJQsqaUBKTNV-1" parent="WIyWlLk6GJQsqaUBKTNV-0" />
        <mxCell id="yVtd9j-R3oHRzDWeaFFo-0" value="Mystery category" style="html=1;" vertex="1" parent="WIyWlLk6GJQsqaUBKTNV-1">
          <mxGeometry x="600" y="550" width="110" height="50" as="geometry" />
        </mxCell>
        <mxCell id="yVtd9j-R3oHRzDWeaFFo-1" value="Fiction category" style="html=1;" vertex="1" parent="WIyWlLk6GJQsqaUBKTNV-1">
          <mxGeometry x="410" y="550" width="110" height="50" as="geometry" />
        </mxCell>
        <mxCell id="yVtd9j-R3oHRzDWeaFFo-2" value="Library" style="html=1;" vertex="1" parent="WIyWlLk6GJQsqaUBKTNV-1">
          <mxGeometry x="500" y="390" width="110" height="50" as="geometry" />
        </mxCell>
        <mxCell id="yVtd9j-R3oHRzDWeaFFo-3" value="Publisher" style="html=1;" vertex="1" parent="WIyWlLk6GJQsqaUBKTNV-1">
          <mxGeometry x="110" y="190" width="110" height="50" as="geometry" />
        </mxCell>
        <mxCell id="yVtd9j-R3oHRzDWeaFFo-4" value="Owner" style="html=1;" vertex="1" parent="WIyWlLk6GJQsqaUBKTNV-1">
          <mxGeometry x="200" y="360" width="110" height="50" as="geometry" />
        </mxCell>
        <mxCell id="yVtd9j-R3oHRzDWeaFFo-5" value="Author" style="html=1;" vertex="1" parent="WIyWlLk6GJQsqaUBKTNV-1">
          <mxGeometry x="110" y="90" width="110" height="50" as="geometry" />
        </mxCell>
        <mxCell id="yVtd9j-R3oHRzDWeaFFo-6" value="Book" style="html=1;" vertex="1" parent="WIyWlLk6GJQsqaUBKTNV-1">
          <mxGeometry x="400" y="250" width="110" height="50" as="geometry" />
        </mxCell>
        <mxCell id="yVtd9j-R3oHRzDWeaFFo-8" style="edgeStyle=orthogonalEdgeStyle;rounded=0;orthogonalLoop=1;jettySize=auto;html=1;exitX=0.5;exitY=1;exitDx=0;exitDy=0;" edge="1" parent="WIyWlLk6GJQsqaUBKTNV-1" source="yVtd9j-R3oHRzDWeaFFo-5" target="yVtd9j-R3oHRzDWeaFFo-5">
          <mxGeometry relative="1" as="geometry" />
        </mxCell>
        <mxCell id="yVtd9j-R3oHRzDWeaFFo-20" value="" style="triangle;whiteSpace=wrap;html=1;rotation=-180;direction=south;" vertex="1" parent="WIyWlLk6GJQsqaUBKTNV-1">
          <mxGeometry x="547.5" y="440" width="15" height="15" as="geometry" />
        </mxCell>
        <mxCell id="yVtd9j-R3oHRzDWeaFFo-25" value="" style="endArrow=none;html=1;entryX=0;entryY=0.5;entryDx=0;entryDy=0;" edge="1" parent="WIyWlLk6GJQsqaUBKTNV-1" target="yVtd9j-R3oHRzDWeaFFo-20">
          <mxGeometry width="50" height="50" relative="1" as="geometry">
            <mxPoint x="555" y="520" as="sourcePoint" />
            <mxPoint x="460" y="410" as="targetPoint" />
          </mxGeometry>
        </mxCell>
        <mxCell id="yVtd9j-R3oHRzDWeaFFo-26" value="" style="endArrow=none;html=1;" edge="1" parent="WIyWlLk6GJQsqaUBKTNV-1">
          <mxGeometry width="50" height="50" relative="1" as="geometry">
            <mxPoint x="460" y="520" as="sourcePoint" />
            <mxPoint x="660" y="520" as="targetPoint" />
          </mxGeometry>
        </mxCell>
        <mxCell id="yVtd9j-R3oHRzDWeaFFo-27" value="" style="endArrow=none;html=1;" edge="1" parent="WIyWlLk6GJQsqaUBKTNV-1">
          <mxGeometry width="50" height="50" relative="1" as="geometry">
            <mxPoint x="460" y="520" as="sourcePoint" />
            <mxPoint x="460" y="550" as="targetPoint" />
          </mxGeometry>
        </mxCell>
        <mxCell id="yVtd9j-R3oHRzDWeaFFo-30" value="" style="endArrow=none;html=1;entryX=0.5;entryY=0;entryDx=0;entryDy=0;" edge="1" parent="WIyWlLk6GJQsqaUBKTNV-1" target="yVtd9j-R3oHRzDWeaFFo-0">
          <mxGeometry width="50" height="50" relative="1" as="geometry">
            <mxPoint x="655" y="520" as="sourcePoint" />
            <mxPoint x="460" y="410" as="targetPoint" />
          </mxGeometry>
        </mxCell>
        <mxCell id="yVtd9j-R3oHRzDWeaFFo-31" value="" style="endArrow=diamondThin;endFill=1;endSize=24;html=1;entryX=0.5;entryY=1;entryDx=0;entryDy=0;exitX=0.5;exitY=0;exitDx=0;exitDy=0;" edge="1" parent="WIyWlLk6GJQsqaUBKTNV-1" source="yVtd9j-R3oHRzDWeaFFo-3" target="yVtd9j-R3oHRzDWeaFFo-5">
          <mxGeometry width="160" relative="1" as="geometry">
            <mxPoint x="350" y="340" as="sourcePoint" />
            <mxPoint x="510" y="340" as="targetPoint" />
          </mxGeometry>
        </mxCell>
        <mxCell id="yVtd9j-R3oHRzDWeaFFo-34" value="" style="endArrow=diamondThin;endFill=1;endSize=24;html=1;exitX=1;exitY=0.5;exitDx=0;exitDy=0;entryX=0;entryY=0;entryDx=0;entryDy=0;" edge="1" parent="WIyWlLk6GJQsqaUBKTNV-1" source="yVtd9j-R3oHRzDWeaFFo-3" target="yVtd9j-R3oHRzDWeaFFo-6">
          <mxGeometry width="160" relative="1" as="geometry">
            <mxPoint x="350" y="340" as="sourcePoint" />
            <mxPoint x="510" y="340" as="targetPoint" />
          </mxGeometry>
        </mxCell>
        <mxCell id="yVtd9j-R3oHRzDWeaFFo-35" value="" style="endArrow=diamondThin;endFill=1;endSize=24;html=1;entryX=1;entryY=1;entryDx=0;entryDy=0;exitX=0.5;exitY=0;exitDx=0;exitDy=0;" edge="1" parent="WIyWlLk6GJQsqaUBKTNV-1" source="yVtd9j-R3oHRzDWeaFFo-2" target="yVtd9j-R3oHRzDWeaFFo-6">
          <mxGeometry width="160" relative="1" as="geometry">
            <mxPoint x="350" y="340" as="sourcePoint" />
            <mxPoint x="510" y="340" as="targetPoint" />
          </mxGeometry>
        </mxCell>
        <mxCell id="yVtd9j-R3oHRzDWeaFFo-37" value="" style="triangle;whiteSpace=wrap;html=1;rotation=-90;direction=south;" vertex="1" parent="WIyWlLk6GJQsqaUBKTNV-1">
          <mxGeometry x="380" y="270" width="15" height="15" as="geometry" />
        </mxCell>
        <mxCell id="yVtd9j-R3oHRzDWeaFFo-39" value="" style="endArrow=none;html=1;exitX=0.5;exitY=0;exitDx=0;exitDy=0;entryX=0;entryY=0.5;entryDx=0;entryDy=0;" edge="1" parent="WIyWlLk6GJQsqaUBKTNV-1" source="yVtd9j-R3oHRzDWeaFFo-4" target="yVtd9j-R3oHRzDWeaFFo-37">
          <mxGeometry width="50" height="50" relative="1" as="geometry">
            <mxPoint x="410" y="360" as="sourcePoint" />
            <mxPoint x="460" y="310" as="targetPoint" />
            <Array as="points">
              <mxPoint x="255" y="278" />
            </Array>
          </mxGeometry>
        </mxCell>
      </root>
    </mxGraphModel>
  </diagram>
</mxfile>
